<svg width="240" height="48" viewBox="0 0 240 48" xmlns="http://www.w3.org/2000/svg">
    <g fill="none" fill-rule="evenodd">
        <g transform="translate(206 8)">
            <rect fill="#7FE5D5" width="32" height="32" rx="4"/>
            <path fill="none" d="M4 4h24v24H4z"/>
            <path d="m16 8 6.926 6.214.074.066V22a2 2 0 0 1-2 2H11a2 2 0 0 1-2-2V10a2 2 0 0 1 2-2h5zm-.592.999L11 9a1 1 0 0 0-.993.883L10 10v12a1 1 0 0 0 .883.993L11 23h10a1 1 0 0 0 .993-.883L22 22v-6.221h-4.096a2.5 2.5 0 0 1-2.494-2.335l-.006-.164.004-4.281z" fill="#12151A" fill-rule="nonzero"/>
        </g>
        <g transform="translate(142 12)">
            <path d="M0 0h24v24H0z"/>
            <path d="M5 1h12l4 4v16a2 2 0 0 1-2 2H5a2 2 0 0 1-2-2V3a2 2 0 0 1 2-2z" fill="#B7EEBE"/>
            <path stroke="#3D7E40" stroke-linecap="round" stroke-linejoin="round" d="m19 17-4-4-2.5 2.5L9 11l-4 6"/>
            <circle stroke="#3D7E40" cx="14" cy="8" r="1.5"/>
        </g>
        <path d="m184.5 31.5 1.058-1.058-5.685-5.692H195v-1.5h-15.127l5.685-5.692L184.5 16.5 177 24z" fill="#000"/>
        <path d="M114 12h24v24h-24z"/>
        <path d="M119 13h12l4 4v16a2 2 0 0 1-2 2h-14a2 2 0 0 1-2-2V15a2 2 0 0 1 2-2z" fill="#F9D8DA"/>
        <path d="M128.5 29H120a1 1 0 0 1-1-1v-8a1 1 0 0 1 1-1h8.5a1 1 0 0 1 1 1v2.03l2.71-1.935a.5.5 0 0 1 .79.405v7a.5.5 0 0 1-.79.405l-2.71-1.935V28a1 1 0 0 1-1 1zm-8.5-9v8h8.5v-3a.5.5 0 0 1 .79-.405L132 26.53v-5.06l-2.71 1.935a.5.5 0 0 1-.79-.405v-3H120z" fill="#E75B5C"/>
        <g>
            <path d="M58 12h24v24H58z"/>
            <path d="M63 13h12l4 4v16a2 2 0 0 1-2 2H63a2 2 0 0 1-2-2V15a2 2 0 0 1 2-2z" fill="#FFE589"/>
            <path d="M76 21h-3v7h1v-2.5h2a1 1 0 0 0 1-1V22a1 1 0 0 0-1-1zm0 3.5h-2V22h2v2.5zM68 21v1h1.5v5H68v1h4v-1h-1.5v-5H72v-1h-4zm-1 0h-4v1h3l-3 5v1h4v-1h-3l3-5v-1z" fill="#684E00"/>
        </g>
        <g>
            <path d="M86 12h24v24H86z"/>
            <path d="M91 13h12l4 4v16a2 2 0 0 1-2 2H91a2 2 0 0 1-2-2V15a2 2 0 0 1 2-2z" fill="#C3E5FC"/>
            <path d="M93.5 22a.5.5 0 0 1 .5.5v3a.5.5 0 1 1-1 0v-3a.5.5 0 0 1 .5-.5zm2-3a.5.5 0 0 1 .5.5v9a.5.5 0 1 1-1 0v-9a.5.5 0 0 1 .5-.5zm2 1a.5.5 0 0 1 .5.5v7a.5.5 0 1 1-1 0v-7a.5.5 0 0 1 .5-.5zm2-1a.5.5 0 0 1 .5.5v9a.5.5 0 1 1-1 0v-9a.5.5 0 0 1 .5-.5zm2 2a.5.5 0 0 1 .5.5v5a.5.5 0 1 1-1 0v-5a.5.5 0 0 1 .5-.5z" fill="#3070BD"/>
        </g>
    </g>
</svg>
