<svg width="32" height="33" viewBox="0 0 32 33" xmlns="http://www.w3.org/2000/svg">
    <g fill-rule="nonzero" fill="none">
        <path fill="#FFF" d="M24.421 7.877H7.58V24.72H24.42z"/>
        <path fill="#EA4335" d="M24.421 32.299 32 24.719h-7.579z"/>
        <path fill="#FBBC04" d="M32 7.877h-7.579V24.72H32z"/>
        <path fill="#34A853" d="M24.421 24.72H7.58v7.579H24.42z"/>
        <path d="M0 24.72v5.052A2.526 2.526 0 0 0 2.526 32.3H7.58v-7.58H0z" fill="#188038"/>
        <path d="M32 7.877V2.825A2.526 2.526 0 0 0 29.474.299H24.42v7.578H32z" fill="#1967D2"/>
        <path d="M24.421.299H2.526A2.526 2.526 0 0 0 0 2.825V24.72h7.579V7.877H24.42V.3z" fill="#4285F4"/>
        <path d="M11.034 20.943c-.63-.426-1.066-1.047-1.303-1.868l1.46-.602c.133.506.365.897.695 1.175.329.278.729.415 1.196.415.478 0 .889-.146 1.232-.436.343-.29.515-.661.515-1.11 0-.458-.18-.833-.543-1.124-.362-.29-.817-.436-1.36-.436h-.844v-1.446h.758c.467 0 .861-.126 1.181-.379.32-.252.48-.598.48-1.038 0-.391-.143-.703-.43-.937-.286-.233-.648-.351-1.088-.351-.43 0-.77.114-1.023.343-.252.23-.442.52-.552.844l-1.446-.602c.192-.543.543-1.023 1.06-1.438.515-.414 1.174-.623 1.974-.623.591 0 1.124.114 1.596.343.471.23.842.548 1.11.952.266.406.4.86.4 1.366 0 .516-.125.952-.374 1.31a2.568 2.568 0 0 1-.915.823v.086c.467.193.873.51 1.174.916.306.41.46.9.46 1.474 0 .572-.146 1.084-.436 1.532-.291.449-.693.802-1.203 1.06a3.79 3.79 0 0 1-1.724.387 3.57 3.57 0 0 1-2.05-.636zm8.974-7.25-1.604 1.16-.802-1.218 2.878-2.075h1.103v9.791h-1.575v-7.659z" fill="#4285F4"/>
    </g>
</svg>
