<svg width="32" height="32" viewBox="0 0 32 32" xmlns="http://www.w3.org/2000/svg">
    <defs>
        <linearGradient x1="63.053%" y1="47.77%" x2="40.674%" y2="81.653%" id="2y8qapfo5a">
            <stop stop-color="#0052CC" offset="0%"/>
            <stop stop-color="#2684FF" offset="100%"/>
        </linearGradient>
        <linearGradient x1="37.262%" y1="51.757%" x2="59.497%" y2="17.995%" id="zzcljtdknb">
            <stop stop-color="#0052CC" offset="0%"/>
            <stop stop-color="#2684FF" offset="100%"/>
        </linearGradient>
    </defs>
    <g fill-rule="nonzero" fill="none">
        <path d="M31.626 15.104 17.745 1.334 16.399 0 1.173 15.104a1.26 1.26 0 0 0 0 1.79l9.547 9.47L16.4 32l15.226-15.105a1.26 1.26 0 0 0 0-1.79zM16.4 20.73 11.631 16 16.4 11.27 21.17 16l-4.77 4.73z" fill="#2684FF"/>
        <path d="M15.6 11.269A7.921 7.921 0 0 1 15.565.037L5.13 10.386l5.68 5.635 4.79-4.752z" fill="url(#2y8qapfo5a)" transform="translate(.8)"/>
        <path d="m20.382 15.987-4.783 4.743a7.934 7.934 0 0 1 2.355 5.635c0 2.114-.848 4.14-2.355 5.635l10.462-10.378-5.68-5.635z" fill="url(#zzcljtdknb)" transform="translate(.8)"/>
    </g>
</svg>
