<svg width="32" height="32" viewBox="0 0 32 32" xmlns="http://www.w3.org/2000/svg">
    <g fill="#000" fill-rule="nonzero">
        <path d="M24.071 16.177a2.8 2.8 0 0 1 .703 0c.126-.287.148-.78.035-1.318-.17-.8-.398-1.284-.87-1.209-.472.076-.489.655-.32 1.454.094.45.264.834.452 1.073zM20.016 16.81c.338.146.546.244.626.158.053-.053.037-.153-.044-.283-.166-.27-.51-.544-.873-.696-.745-.317-1.632-.211-2.317.276-.226.163-.44.39-.41.528.01.045.044.078.123.09.186.02.837-.305 1.587-.35.531-.034.97.13 1.308.276zM19.336 17.193c-.439.069-.683.213-.838.346-.133.115-.215.243-.215.332 0 .043.02.067.033.08.02.017.044.027.072.027.1 0 .322-.088.322-.088.613-.216 1.016-.19 1.417-.145.222.025.326.038.374-.037.014-.022.032-.069-.012-.139-.102-.167-.547-.447-1.153-.376zM22.701 18.602c.3.146.628.088.735-.127.107-.216-.048-.508-.347-.653-.299-.146-.628-.088-.734.127-.108.216.048.508.346.653zM24.623 16.941c-.243-.004-.444.26-.45.589-.005.329.188.599.43.603.243.004.444-.26.45-.588.005-.33-.188-.6-.43-.604zM8.316 22.88c-.061-.075-.16-.052-.255-.03-.067.015-.143.033-.226.032a.491.491 0 0 1-.415-.209c-.11-.167-.104-.418.018-.705l.057-.129c.194-.432.521-1.155.155-1.845-.276-.518-.725-.842-1.264-.909a1.634 1.634 0 0 0-1.392.497c-.537.585-.621 1.384-.517 1.665.037.103.097.131.141.137.092.012.226-.054.31-.279.006-.016.015-.04.024-.072.038-.12.109-.342.224-.519a.954.954 0 0 1 .608-.415.985.985 0 0 1 .743.137c.376.244.522.7.36 1.134-.082.225-.217.656-.188 1.01.06.716.505 1.002.906 1.034.388.015.66-.202.729-.36.039-.093.004-.149-.018-.174z"/>
        <path d="M30.01 20.26c-.014-.05-.105-.381-.231-.78-.127-.4-.256-.683-.256-.683.505-.75.514-1.42.447-1.799-.071-.47-.269-.871-.668-1.285-.398-.414-1.212-.839-2.356-1.158l-.6-.165c-.003-.025-.032-1.403-.059-1.997-.018-.428-.056-1.096-.265-1.754-.248-.891-.683-1.67-1.224-2.169 1.495-1.536 2.427-3.229 2.426-4.682C27.22.995 23.76.15 19.499 1.901l-.904.38A710.996 710.996 0 0 0 16.938.67C12.081-3.532-3.112 13.218 1.746 17.286l1.061.892c-.275.708-.383 1.518-.295 2.39.114 1.119.696 2.193 1.64 3.02.896.789 2.073 1.286 3.216 1.285 1.89 4.32 6.21 6.97 11.273 7.12 5.432.16 9.992-2.369 11.903-6.91.125-.318.656-1.754.656-3.022 0-1.273-.726-1.8-1.19-1.8zm-22.224 3.4c-.165.028-.333.04-.503.036-1.641-.043-3.413-1.509-3.59-3.246-.194-1.92.795-3.398 2.547-3.75a2.99 2.99 0 0 1 .735-.052c.98.054 2.427.801 2.758 2.921.293 1.879-.172 3.791-1.947 4.092zm-1.832-8.108c-1.09.21-2.052.823-2.64 1.67-.351-.29-1.006-.853-1.12-1.073-.938-1.767 1.023-5.203 2.394-7.143C7.976 4.212 13.281.581 15.738 1.24c.398.112 1.72 1.633 1.72 1.633s-2.454 1.35-4.732 3.234c-3.066 2.344-5.384 5.75-6.772 9.445zm17.22 7.39a.096.096 0 0 0 .058-.095.09.09 0 0 0-.1-.08s-2.569.378-4.998-.504c.265-.853.968-.545 2.031-.46a14.975 14.975 0 0 0 4.903-.525c1.1-.314 2.543-.93 3.665-1.808.378.824.512 1.73.512 1.73s.293-.051.538.099c.232.141.4.435.284 1.193-.235 1.417-.843 2.568-1.863 3.626a7.685 7.685 0 0 1-2.24 1.66c-.458.24-.946.446-1.461.613-3.849 1.246-7.788-.124-9.058-3.067a4.647 4.647 0 0 1-.254-.695c-.542-1.94-.082-4.267 1.354-5.733.088-.094.179-.203.179-.342 0-.116-.074-.238-.138-.324-.502-.722-2.244-1.954-1.894-4.338.25-1.713 1.76-2.919 3.168-2.847.119.007.239.013.357.021.61.035 1.142.114 1.645.135.84.036 1.597-.085 2.492-.826.302-.25.544-.466.954-.534.043-.008.15-.046.365-.035.218.011.427.07.614.194.717.474.819 1.621.856 2.46.02.48.079 1.638.1 1.971.046.76.247.87.654 1.002.23.075.443.131.756.218.95.266 1.514.533 1.87.878.211.216.31.445.34.663.112.81-.634 1.812-2.61 2.72-2.16.995-4.781 1.247-6.592 1.047l-.635-.07c-1.449-.194-2.275 1.663-1.405 2.935.56.82 2.086 1.353 3.613 1.353 3.5 0 6.191-1.482 7.192-2.762.03-.038.033-.044.08-.114.05-.073.01-.114-.052-.073-.818.555-4.45 2.757-8.335 2.095 0 0-.471-.077-.903-.243-.343-.132-1.06-.458-1.146-1.189 3.13.96 5.105.051 5.105.051zM12.21 8.986c1.204-1.38 2.687-2.58 4.015-3.254.046-.023.094.026.07.07-.106.19-.309.595-.373.904a.054.054 0 0 0 .083.056c.825-.56 2.264-1.158 3.524-1.235.054-.004.08.065.037.098a2.982 2.982 0 0 0-.554.551.053.053 0 0 0 .042.085c.885.007 2.133.314 2.946.766.055.03.016.136-.046.123-1.23-.28-3.245-.493-5.338.014-1.868.452-3.294 1.15-4.335 1.9-.05.04-.113-.028-.07-.078z"/>
    </g>
</svg>
