<svg width="240" height="48" viewBox="0 0 240 48" xmlns="http://www.w3.org/2000/svg">
    <g transform="translate(206 8)" fill="none" fill-rule="evenodd">
        <rect fill="#E9E98A" width="32" height="32" rx="4"/>
        <path fill="none" d="M4 4h24v24H4z"/>
        <path d="M24 6a2 2 0 0 1 2 2v16a2 2 0 0 1-2 2H8a2 2 0 0 1-2-2V8a2 2 0 0 1 2-2h16zm0 1H8a1 1 0 0 0-1 1v16a1 1 0 0 0 1 1h16a1 1 0 0 0 1-1V8a1 1 0 0 0-1-1zm-3 10a2 2 0 0 1 2 2v2a2 2 0 0 1-2 2h-2a2 2 0 0 1-2-2v-2a2 2 0 0 1 2-2h2zm-8 1a1 1 0 0 1 1 1v2a1 1 0 0 1-1 1h-2a1 1 0 0 1-1-1v-2a1 1 0 0 1 1-1h2zm8 0h-2a1 1 0 0 0-1 1v2a1 1 0 0 0 1 1h2a1 1 0 0 0 1-1v-2a1 1 0 0 0-1-1zm-8-9a2 2 0 0 1 2 2v2a2 2 0 0 1-2 2h-2a2 2 0 0 1-2-2v-2a2 2 0 0 1 2-2h2zm0 1h-2a1 1 0 0 0-1 1v2a1 1 0 0 0 1 1h2a1 1 0 0 0 1-1v-2a1 1 0 0 0-1-1zm8 0a1 1 0 0 1 1 1v2a1 1 0 0 1-1 1h-2a1 1 0 0 1-1-1v-2a1 1 0 0 1 1-1h2z" fill="#12151A" fill-rule="nonzero"/>
    </g>
</svg>
