<svg width="240" height="48" viewBox="0 0 240 48" xmlns="http://www.w3.org/2000/svg">
    <g fill="none" fill-rule="evenodd">
        <g fill="#12151A" fill-rule="nonzero">
            <path d="M45.5 32.22h-1.553l5.938-15.439h1.543zM56.174 19.174l-1.856 4.707h-1.68l2.92-7.1h1.24l2.911 7.1h-1.67zM61.672 25.229c0-1.472.197-2.885.59-4.239a12.312 12.312 0 0 1 1.763-3.691c.782-1.107 1.592-1.888 2.432-2.344l.371 1.191c-.95.73-1.73 1.843-2.339 3.34-.608 1.498-.942 3.174-1 5.03l-.01.83c0 2.513.459 4.694 1.377 6.543.553 1.106 1.21 1.972 1.972 2.597l-.37 1.104c-.867-.482-1.694-1.29-2.481-2.422-1.537-2.214-2.305-4.86-2.305-7.94zM72.316 16.234h-1.865v16.328h1.865v1.485h-3.681V14.75h3.681zM80.402 31c-.104-.208-.188-.58-.254-1.113-.84.872-1.842 1.308-3.007 1.308-1.042 0-1.896-.294-2.564-.883-.667-.59-1-1.337-1-2.242 0-1.1.418-1.954 1.254-2.563.837-.609 2.013-.913 3.53-.913h1.758v-.83c0-.632-.189-1.135-.566-1.51-.378-.373-.934-.56-1.67-.56-.645 0-1.185.162-1.621.488-.436.325-.655.719-.655 1.181h-1.816c0-.527.187-1.037.562-1.528.374-.492.882-.88 1.523-1.167a5.125 5.125 0 0 1 2.114-.43c1.218 0 2.171.305 2.862.913.69.61 1.048 1.447 1.074 2.515v4.863c0 .97.124 1.742.37 2.315V31h-1.894zm-2.998-1.377c.567 0 1.104-.146 1.612-.44.507-.292.875-.673 1.103-1.142v-2.168h-1.416c-2.213 0-3.32.648-3.32 1.943 0 .567.189 1.01.566 1.329.378.319.863.478 1.455.478zM88.518 25.697h-4.766v-1.474h4.766zM91.975 29.525h6.181V31h-8.388v-1.328l5.83-7.744h-5.742v-1.494h8.007v1.279zM108.322 27.29h-5.957L101.027 31h-1.933l5.43-14.219h1.64L111.604 31h-1.924l-1.358-3.71zm-5.39-1.544h4.834l-2.422-6.65-2.412 6.65zM116.994 25.697h-4.765v-1.474h4.765zM120.441 29.467h8.135V31h-10.351v-1.406l7.793-11.27h-7.666v-1.543h9.912v1.377zM139.455 24.936c0 2.115-.361 3.688-1.084 4.716-.723 1.029-1.852 1.543-3.389 1.543-1.516 0-2.64-.503-3.369-1.508-.729-1.006-1.106-2.509-1.132-4.507v-2.412c0-2.09.36-3.643 1.083-4.659.723-1.015 1.856-1.523 3.399-1.523 1.53 0 2.656.49 3.379 1.47.722.98 1.094 2.492 1.113 4.536v2.344zm-1.807-2.471c0-1.53-.214-2.645-.644-3.345-.43-.7-1.11-1.05-2.041-1.05-.925 0-1.598.349-2.022 1.045-.423.697-.64 1.768-.654 3.213v2.89c0 1.537.223 2.672.67 3.404.445.732 1.12 1.099 2.025 1.099.892 0 1.555-.345 1.988-1.035.433-.69.659-1.778.678-3.262v-2.96zM145.715 25.697h-4.766v-1.474h4.766zM154.211 24.75a4.42 4.42 0 0 1-1.353 1.084 3.67 3.67 0 0 1-1.723.41c-.82 0-1.535-.202-2.144-.605-.608-.404-1.079-.972-1.41-1.704-.333-.733-.499-1.542-.499-2.427 0-.95.18-1.807.542-2.569.361-.761.874-1.344 1.538-1.748.664-.403 1.439-.605 2.324-.605 1.407 0 2.515.526 3.326 1.577.81 1.052 1.215 2.485 1.215 4.302v.527c0 2.767-.546 4.787-1.64 6.06-1.094 1.273-2.744 1.925-4.951 1.958h-.352v-1.524h.38c1.492-.026 2.638-.415 3.438-1.167.801-.752 1.237-1.941 1.309-3.569zm-2.783 0a2.79 2.79 0 0 0 1.675-.557c.51-.37.883-.83 1.118-1.377v-.722c0-1.185-.257-2.149-.772-2.89-.514-.743-1.165-1.114-1.953-1.114-.794 0-1.432.304-1.914.913s-.723 1.411-.723 2.407c0 .97.233 1.77.699 2.398.465.628 1.089.942 1.87.942zM159.123 29.691c0-.358.127-.665.38-.922.255-.258.56-.386.919-.386.358 0 .664.128.918.386.254.257.38.564.38.922 0 .358-.126.664-.38.918s-.56.381-.918.381-.664-.123-.918-.37a1.242 1.242 0 0 1-.38-.929zM172.492 32.475h-8.945V31h8.945zM173.557 19.516c0-.853.271-1.556.815-2.11.544-.553 1.242-.83 2.095-.83.866 0 1.567.278 2.104.835.537.557.806 1.278.806 2.163v.694c0 .859-.272 1.56-.815 2.104-.544.544-1.236.816-2.076.816-.846 0-1.546-.272-2.1-.816-.553-.544-.83-1.268-.83-2.173v-.683zm1.347.752c0 .507.144.926.43 1.254.286.33.67.494 1.152.494.463 0 .835-.16 1.119-.479.283-.319.424-.755.424-1.308v-.713c0-.508-.14-.928-.42-1.26-.28-.332-.66-.498-1.142-.498-.482 0-.863.166-1.143.498-.28.332-.42.765-.42 1.299v.713zm5.577 7.246c0-.853.271-1.555.815-2.105.544-.55 1.242-.825 2.095-.825.853 0 1.552.273 2.1.82.546.547.82 1.273.82 2.178v.693c0 .853-.272 1.555-.816 2.105-.543.55-1.238.825-2.085.825-.846 0-1.546-.272-2.1-.815-.553-.544-.83-1.268-.83-2.173v-.703zm1.347.761c0 .515.143.936.43 1.265.286.329.67.493 1.152.493.469 0 .843-.16 1.123-.483.28-.322.42-.76.42-1.314v-.722c0-.515-.141-.935-.425-1.26-.283-.326-.662-.488-1.137-.488-.463 0-.839.16-1.128.483-.29.322-.435.757-.435 1.304v.722zm-4.931 1.65-1.026-.644 6.943-11.113 1.026.645-6.943 11.113zM192.307 25.697h-4.766v-1.474h4.766zM192.785 14.75h3.692v19.297h-3.692v-1.484h1.885V16.233h-1.885z"/>
        </g>
        <g transform="translate(206 8)">
            <rect fill="#B9C5FE" width="32" height="32" rx="4"/>
            <path fill="none" d="M4 4h24v24H4z"/>
            <path d="M21 10a2 2 0 0 1 2 2v8a2 2 0 0 1-2 2H11a2 2 0 0 1-2-2v-8a2 2 0 0 1 2-2h10zm0 1H11a1 1 0 0 0-.993.883L10 12v8a1 1 0 0 0 .883.993L11 21h10a1 1 0 0 0 .993-.883L22 20v-8a1 1 0 0 0-.883-.993L21 11zm-1.5 6a.5.5 0 1 1 0 1h-3a.5.5 0 1 1 0-1h3zm0-3a.5.5 0 1 1 0 1h-7a.5.5 0 1 1 0-1h7z" fill="#12151A" fill-rule="nonzero"/>
        </g>
    </g>
</svg>
