<svg width="240" height="48" viewBox="0 0 240 48" xmlns="http://www.w3.org/2000/svg">
    <defs>
        <linearGradient x1="99.189%" y1="50%" x2="0%" y2="50%" id="qtmlrvjnqa">
            <stop stop-color="#FFB8E3" offset="0%"/>
            <stop stop-color="#88E5FF" offset="100%"/>
        </linearGradient>
    </defs>
    <g fill="none" fill-rule="evenodd">
        <g transform="translate(206 8)">
            <rect fill="url(#qtmlrvjnqa)" width="32" height="32" rx="4"/>
            <path fill="none" d="M4 4h24v24H4z"/>
            <path d="M20 9a1 1 0 0 1 1 1v1h4a2 2 0 0 1 1.995 1.85L27 13v6a2 2 0 0 1-2 2h-4v1a1 1 0 0 1-1 1h-2a1 1 0 0 1-1-1v-1H7a2 2 0 0 1-1.995-1.85L5 19v-6a2 2 0 0 1 2-2h10v-1a1 1 0 0 1 1-1h2zm-3 3H7a1 1 0 0 0-1 1v6a1 1 0 0 0 1 1h10v-8zm8 0h-4v8h4a1 1 0 0 0 .993-.883L26 19v-6a1 1 0 0 0-1-1z" fill="#12151A" fill-rule="nonzero"/>
        </g>
        <g transform="translate(166 8)">
            <rect fill="#FCE287" width="32" height="32" rx="4"/>
            <path fill="none" d="M4 4h24v24H4z"/>
            <path d="m15.019 7.692-1.656 5.1L8 12.791a1 1 0 0 0-.81.412l-.068.106a1 1 0 0 0 .29 1.29l4.34 3.15-1.66 5.101a1 1 0 0 0 .142.898l.08.097a1 1 0 0 0 1.317.123l4.338-3.154 4.337 3.154a1 1 0 0 0 .898.142l.109-.042a1 1 0 0 0 .532-1.218l-1.66-5.1 4.34-3.15a1 1 0 0 0 .413-.81l-.006-.116a1 1 0 0 0-.994-.883l-5.363.001-1.655-5.1a1 1 0 0 0-1.902 0zm-.817 5.755 1.768-5.445 1.767 5.445a.5.5 0 0 0 .476.346l5.726-.002-4.634 3.364a.5.5 0 0 0-.182.559l1.772 5.446-4.631-3.368a.5.5 0 0 0-.588 0l-4.632 3.368 1.772-5.446a.5.5 0 0 0-.182-.56L8 13.792l5.727.002a.5.5 0 0 0 .475-.346z" fill="#12151A" fill-rule="nonzero"/>
        </g>
    </g>
</svg>
