<svg width="240" height="48" viewBox="0 0 240 48" xmlns="http://www.w3.org/2000/svg">
    <g fill="none" fill-rule="evenodd">
        <g transform="translate(166 8)">
            <rect fill="#FF9FA2" width="32" height="32" rx="4"/>
            <path fill="none" d="M4 4h24v24H4z"/>
            <path d="m13.686 22.926.752-3.887.029-.117h2.87l-.028.176-.752 3.828h1.113l.752-3.887.03-.117h2.421v-1.045h-2.227l.03-.176.674-3.457.029-.117h2.226v-1.065h-2.021l.03-.175.77-3.887h-1.113l-.771 3.945-.03.117H15.6l.029-.175L16.4 9h-1.103l-.772 3.945-.029.117h-2.754v1.065h2.549l-.03.176-.673 3.457-.03.117H11v1.045h2.363l-.029.176-.752 3.828h1.104zm3.847-5.049h-2.87l.028-.176.674-3.457.03-.117h2.87l-.029.176-.674 3.457-.029.117z" fill="#12151A" fill-rule="nonzero"/>
        </g>
        <g transform="translate(126 8)">
            <rect fill="#A0EAFF" width="32" height="32" rx="4"/>
            <path fill="none" d="M4 4h24v24H4z"/>
            <path d="m14.845 13.62.221.009c1.11.08 2.13.637 2.796 1.527a.5.5 0 1 1-.8.6 2.833 2.833 0 0 0-4.124-.446l-.15.14-1.993 1.993a2.833 2.833 0 0 0 3.858 4.14l.142-.128 1.14-1.14a.5.5 0 0 1 .765.638l-.058.07-1.146 1.146a3.833 3.833 0 0 1-5.56-5.268l.145-.159 2-2a3.833 3.833 0 0 1 2.764-1.123zm7.29-3.497a3.835 3.835 0 0 1 .186 5.22l-.146.16-2 2a3.833 3.833 0 0 1-5.78-.414.5.5 0 0 1 .8-.6 2.833 2.833 0 0 0 4.123.446l.15-.14 1.994-1.993a2.833 2.833 0 0 0-3.86-4.14l-.141.128-1.147 1.14a.5.5 0 0 1-.763-.64l.058-.069 1.152-1.145a3.833 3.833 0 0 1 5.374.047z" fill="#12151A" fill-rule="nonzero"/>
        </g>
        <g transform="translate(206 8)">
            <rect fill="#B9C5FE" width="32" height="32" rx="4"/>
            <path fill="none" d="M4 4h24v24H4z"/>
            <path d="M21 10a2 2 0 0 1 2 2v8a2 2 0 0 1-2 2H11a2 2 0 0 1-2-2v-8a2 2 0 0 1 2-2h10zm0 1H11a1 1 0 0 0-.993.883L10 12v8a1 1 0 0 0 .883.993L11 21h10a1 1 0 0 0 .993-.883L22 20v-8a1 1 0 0 0-.883-.993L21 11zm-1.5 6a.5.5 0 1 1 0 1h-3a.5.5 0 1 1 0-1h3zm0-3a.5.5 0 1 1 0 1h-7a.5.5 0 1 1 0-1h7z" fill="#12151A" fill-rule="nonzero"/>
        </g>
        <g transform="translate(86 8)">
            <rect fill="#FEA9C1" width="32" height="32" rx="4"/>
            <path fill="none" d="M4 4h24v24H4z"/>
            <path d="M15.455 25.105c.671 0 1.335-.08 1.993-.244.599-.143 1.087-.325 1.465-.547l-.274-.84a4.968 4.968 0 0 1-.845.347c-.16.05-.327.096-.503.142a7.702 7.702 0 0 1-1.796.215c-1.387 0-2.575-.323-3.565-.967-.983-.645-1.715-1.576-2.197-2.793-.475-1.204-.674-2.627-.596-4.268.072-1.62.404-3.05.996-4.287.6-1.25 1.42-2.207 2.461-2.87a6.19 6.19 0 0 1 1.675-.748 7.009 7.009 0 0 1 1.89-.249c2.22 0 3.877.684 4.97 2.05 1.088 1.355 1.57 3.318 1.446 5.89a9.715 9.715 0 0 1-.074.844c-.035.27-.084.528-.146.772a4.945 4.945 0 0 1-.23.693 4.296 4.296 0 0 1-.312.61c-.241.385-.523.674-.845.87a2.024 2.024 0 0 1-1.07.293c-.468 0-.821-.166-1.059-.498-.237-.332-.356-.808-.356-1.426 0-.157.006-.32.02-.489L19 12.273c-.481-.37-.914-.621-1.298-.752a3.332 3.332 0 0 0-.645-.156 5.112 5.112 0 0 0-.723-.049c-.325 0-.643.057-.952.171-.309.114-.613.288-.913.523a4.362 4.362 0 0 0-.825.835 6.294 6.294 0 0 0-.66 1.098c-.383.827-.624 1.768-.722 2.823-.124 1.302.046 2.317.508 3.047.221.358.495.625.82.8.326.176.71.264 1.153.264.455 0 .898-.127 1.328-.38.43-.261.814-.658 1.152-1.192l.176-.264.088.293c.325 1.029 1.06 1.543 2.207 1.543 1.133 0 2.034-.436 2.705-1.309.683-.885 1.064-2.103 1.142-3.652.079-1.816-.162-3.402-.722-4.756a6.982 6.982 0 0 0-.65-1.24 6.506 6.506 0 0 0-.844-1.03 5.86 5.86 0 0 0-1.036-.816C19.157 7.358 17.793 7 16.198 7c-.769 0-1.494.096-2.178.288a7.438 7.438 0 0 0-1.934.855c-1.21.761-2.174 1.845-2.89 3.252-.71 1.412-1.104 3.004-1.182 4.775-.078 1.816.17 3.405.742 4.766.573 1.347 1.433 2.38 2.578 3.095 1.146.716 2.52 1.074 4.121 1.074zm-.273-5.332c-.631 0-1.094-.273-1.387-.82-.273-.52-.364-1.256-.273-2.207.039-.456.1-.879.185-1.27.085-.39.192-.75.323-1.079.13-.328.28-.626.449-.893.527-.82 1.198-1.23 2.012-1.23.221 0 .434.024.64.073.204.049.405.125.6.23l.088.038-.01.098-.45 4.922-.009.088v.02l-.01.009a5.162 5.162 0 0 1-.415.85 3.057 3.057 0 0 1-.512.634 2.407 2.407 0 0 1-.235.19 2.051 2.051 0 0 1-.483.255 1.618 1.618 0 0 1-.513.092z" fill="#12151A" fill-rule="nonzero"/>
        </g>
    </g>
</svg>
