<svg width="32" height="32" viewBox="0 0 32 32" xmlns="http://www.w3.org/2000/svg">
    <g fill-rule="nonzero" fill="none">
        <path d="M6.746 20.23a3.359 3.359 0 0 1-3.36 3.362 3.359 3.359 0 0 1-3.36-3.363 3.359 3.359 0 0 1 3.36-3.363h3.36v3.363zm1.68 0a3.359 3.359 0 0 1 3.36-3.364 3.359 3.359 0 0 1 3.361 3.363v8.408A3.359 3.359 0 0 1 11.787 32a3.359 3.359 0 0 1-3.36-3.363v-8.408z" fill="#E01E5A"/>
        <path d="M11.787 6.726a3.359 3.359 0 0 1-3.36-3.363A3.359 3.359 0 0 1 11.786 0a3.359 3.359 0 0 1 3.36 3.363v3.363h-3.36zm0 1.707a3.359 3.359 0 0 1 3.36 3.363 3.359 3.359 0 0 1-3.36 3.363H3.36A3.359 3.359 0 0 1 0 11.796a3.359 3.359 0 0 1 3.36-3.363h8.427z" fill="#36C5F0"/>
        <path d="M25.254 11.796a3.359 3.359 0 0 1 3.36-3.363 3.359 3.359 0 0 1 3.36 3.363 3.359 3.359 0 0 1-3.36 3.363h-3.36v-3.363zm-1.68 0a3.359 3.359 0 0 1-3.36 3.363 3.359 3.359 0 0 1-3.361-3.363V3.363A3.359 3.359 0 0 1 20.213 0a3.359 3.359 0 0 1 3.36 3.363v8.433z" fill="#2EB67D"/>
        <path d="M20.213 25.274a3.359 3.359 0 0 1 3.36 3.363A3.359 3.359 0 0 1 20.214 32a3.359 3.359 0 0 1-3.36-3.363v-3.363h3.36zm0-1.682a3.359 3.359 0 0 1-3.36-3.363 3.359 3.359 0 0 1 3.36-3.363h8.427A3.359 3.359 0 0 1 32 20.23a3.359 3.359 0 0 1-3.36 3.363h-8.427z" fill="#ECB22E"/>
    </g>
</svg>
