<svg width="32" height="33" viewBox="0 0 32 33" xmlns="http://www.w3.org/2000/svg">
    <defs>
        <linearGradient x1="50%" y1="100%" x2="50%" y2="0%" id="xfeh5ieuba">
            <stop stop-color="#1D93D2" offset="0%"/>
            <stop stop-color="#38B0E3" offset="100%"/>
        </linearGradient>
    </defs>
    <g fill-rule="nonzero" fill="none">
        <circle fill="url(#xfeh5ieuba)" cx="16" cy="16.299" r="16"/>
        <path d="m10.83 17.468 1.899 5.254s.237.492.491.492 4.034-3.932 4.034-3.932l4.204-8.12-10.56 4.95-.067 1.356z" fill="#C8DAEA"/>
        <path d="m13.347 18.816-.364 3.872s-.152 1.187 1.034 0c1.186-1.186 2.322-2.101 2.322-2.101" fill="#A9C6D8"/>
        <path d="M10.865 17.656 6.96 16.383s-.467-.189-.316-.618c.03-.089.093-.164.28-.294.865-.603 16.014-6.048 16.014-6.048s.427-.144.68-.048c.127.04.223.144.251.274.027.113.039.229.034.345-.001.1-.013.193-.023.339-.092 1.488-2.853 12.599-2.853 12.599s-.165.65-.757.672c-.294.01-.579-.1-.79-.305-1.161-1-5.176-3.697-6.063-4.29a.17.17 0 0 1-.073-.12c-.012-.063.056-.14.056-.14s6.99-6.214 7.176-6.866c.014-.05-.04-.076-.113-.054-.464.171-8.513 5.254-9.4 5.815a.428.428 0 0 1-.198.012z" fill="#FFF"/>
    </g>
</svg>
