<svg width="32" height="33" viewBox="0 0 32 33" xmlns="http://www.w3.org/2000/svg">
    <g fill="none" fill-rule="evenodd">
        <path d="m.798 31.504 2.148-7.809a14.99 14.99 0 0 1-2.022-7.534C.928 7.852 7.72 1.092 16.064 1.092c4.05.002 7.85 1.572 10.708 4.42a14.947 14.947 0 0 1 4.43 10.661c-.003 8.309-6.795 15.07-15.138 15.07-.001 0 0 0 0 0h-.007c-2.533-.001-5.023-.634-7.234-1.835L.798 31.504z" fill="#FFF"/>
        <path d="M.798 31.9a.399.399 0 0 1-.385-.5l2.105-7.65a15.415 15.415 0 0 1-1.991-7.588C.53 7.633 7.499.695 16.064.695a15.475 15.475 0 0 1 10.99 4.536 15.34 15.34 0 0 1 4.547 10.942c-.004 8.528-6.974 15.467-15.537 15.467-2.543-.001-5.059-.626-7.291-1.808L.899 31.887a.366.366 0 0 1-.101.014z" fill="#FFF"/>
        <path d="M16.064 1.092c4.05.002 7.85 1.572 10.708 4.42a14.947 14.947 0 0 1 4.43 10.661c-.003 8.309-6.795 15.07-15.138 15.07h-.007c-2.533-.001-5.023-.634-7.234-1.835L.798 31.504l2.148-7.809a14.99 14.99 0 0 1-2.022-7.534C.928 7.852 7.72 1.092 16.064 1.092m0-.793C7.28.299.13 7.414.127 16.16c0 2.673.677 5.308 1.962 7.64L.03 31.295a.79.79 0 0 0 .202.768.8.8 0 0 0 .77.21l7.723-2.017a16.023 16.023 0 0 0 7.333 1.781c8.79 0 15.939-7.116 15.943-15.863A15.732 15.732 0 0 0 27.337 4.95 15.876 15.876 0 0 0 16.064.3z" fill="#CFD8DC"/>
        <path d="M24.963 7.31a12.524 12.524 0 0 0-8.895-3.672c-6.94 0-12.585 5.618-12.588 12.524 0 2.367.664 4.67 1.924 6.666l.3.474-1.272 4.622 4.762-1.244.46.272a12.599 12.599 0 0 0 6.405 1.746h.005c6.935 0 12.58-5.619 12.582-12.526 0-3.346-1.306-6.494-3.683-8.861z" fill="#40C351"/>
        <path d="M12.28 9.862c-.284-.627-.582-.64-.852-.651-.221-.01-.473-.009-.725-.009s-.662.095-1.009.472c-.346.377-1.324 1.287-1.324 3.14 0 1.854 1.355 3.645 1.544 3.896.19.25 2.617 4.175 6.462 5.685 3.195 1.255 3.846 1.006 4.54.943.693-.063 2.238-.91 2.552-1.79.315-.88.315-1.634.221-1.791-.095-.157-.347-.25-.724-.44-.378-.189-2.239-1.1-2.585-1.225-.347-.125-.6-.188-.852.189-.252.376-.977 1.225-1.198 1.476-.22.252-.441.283-.82.095-.377-.19-1.596-.586-3.041-1.87-1.124-.998-1.883-2.23-2.104-2.608-.221-.376-.024-.58.166-.768.17-.17.377-.44.567-.66.19-.22.252-.377.378-.628.126-.252.063-.472-.032-.66-.093-.189-.828-2.051-1.165-2.796z" fill="#FFF"/>
    </g>
</svg>
