<svg width="32" height="32" viewBox="0 0 32 32" xmlns="http://www.w3.org/2000/svg">
    <path d="M31.728 13.209h-9.462l6.649-6.597c-.512-.76-1.023-1.268-1.535-2.03a14.594 14.594 0 0 1-2.046-1.776l-6.648 6.597V.27A8.762 8.762 0 0 0 16.13.016 7.937 7.937 0 0 0 13.57.27v9.387l-6.904-6.85a6.889 6.889 0 0 0-2.047 1.776c-.511.76-1.278 1.268-1.79 2.03l6.649 6.596H.272l-.256 2.537c-.055.854.031 1.711.256 2.537h9.463l-6.905 6.85a13.654 13.654 0 0 0 3.836 3.806l6.65-6.597v9.388c.835.21 1.696.295 2.557.254.86.055 1.724-.03 2.557-.254v-9.387l6.649 6.597a6.889 6.889 0 0 0 2.046-1.776c.659-.62 1.258-1.3 1.79-2.03l-6.65-6.597h9.463A8.56 8.56 0 0 0 31.984 16a9.441 9.441 0 0 0-.255-2.791zm-11.764 2.537a12.77 12.77 0 0 1-.512 3.299 7.728 7.728 0 0 1-3.325.507 13.062 13.062 0 0 1-3.325-.507 7.557 7.557 0 0 1-.511-3.299 12.77 12.77 0 0 1 .511-3.299 7.728 7.728 0 0 1 3.325-.507c1.126.025 2.244.196 3.325.507.295 1.077.467 2.184.512 3.299z" fill="#FF4A00" fill-rule="nonzero"/>
</svg>
